#!Matlab matrix to amc conversion
:FULLY-SPECIFIED
:DEGREES
16
root -0.596016 0.951045 5.976992 5.809387 1.456311 -2.083685
lowerback -6.204797 -0.025540 -1.612177
upperback -1.603928 -0.005167 3.017162
thorax 1.753361 -0.005779 3.996202
lowerneck -22.960600 -4.580585 -11.794303
upperneck 26.940903 -5.872689 11.747024
head 13.685219 -2.209861 5.640308
rclavicle -0.000000 -0.000000
rhumerus -36.245639 3.438784 -79.566437
rradius 22.884844
rwrist -2.143097
rhand -28.856200 -18.800500
rfingers 7.125020
rthumb -2.212790 -48.768800
lclavicle -0.000000 -0.000000
lhumerus -28.871442 -18.964866 99.649378
lradius 25.852402
lwrist 7.971286
lhand -19.668800 -28.799300
lfingers 7.125020
lthumb 6.659510 1.076010
rfemur -9.642014 -1.667156 28.895922
rtibia 18.134821
rfoot -12.378088 7.478323
rtoes -20.766800
lfemur -24.813497 12.470852 -18.740737
ltibia 62.911727
lfoot 17.490076 46.816552
ltoes -22.051700
17
root -0.604663 0.901759 6.299528 5.974482 0.719465 -2.487415
lowerback -6.134554 0.380668 -1.009415
upperback -1.603331 0.513357 2.947297
thorax 1.659978 0.254017 3.610622
lowerneck -23.069994 -4.655258 -11.804367
upperneck 26.696914 -5.963360 11.790824
head 13.619024 -2.236803 5.632687
rclavicle -0.000000 -0.000000
rhumerus -35.250921 7.986636 -82.064665
rradius 25.126634
rwrist -6.049916
rhand -28.856200 -18.800500
rfingers 7.125020
rthumb -2.212790 -48.768800
lclavicle -0.000000 -0.000000
lhumerus -30.228464 -15.455834 98.198314
lradius 23.561181
lwrist 4.376615
lhand -19.668800 -28.799300
lfingers 7.125020
lthumb 6.659510 1.076010
rfemur -7.845529 -1.507862 29.527387
rtibia 16.704766
rfoot -13.235242 7.035673
rtoes -20.766800
lfemur -28.209575 12.989528 -19.615475
ltibia 61.805319
lfoot 12.645997 42.690881
ltoes -22.051700
18
root -0.611808 0.846869 6.625449 6.125025 0.099116 -3.015721
lowerback -5.913800 0.690810 -0.319756
upperback -1.607327 0.898048 2.974332
thorax 1.508426 0.447505 3.272346
lowerneck -23.091515 -4.643018 -11.924867
upperneck 26.255144 -5.907358 11.945762
head 13.442699 -2.197746 5.703933
rclavicle -0.000000 0.000000
rhumerus -34.210588 12.174638 -83.960728
rradius 27.512750
rwrist -9.559814
rhand -28.856200 -18.800500
rfingers 7.125020
rthumb -2.212790 -48.768800
lclavicle -0.000000 0.000000
lhumerus -31.977120 -10.857188 95.723962
lradius 21.360594
lwrist -0.262574
lhand -19.668800 -28.799300
lfingers 7.125020
lthumb 6.659510 1.076010
rfemur -6.386845 -1.537036 30.167541
rtibia 16.021305
rfoot -13.947296 6.867538
rtoes -20.766800
lfemur -31.276892 12.984318 -20.050397
ltibia 59.696340
lfoot 6.850313 36.861401
ltoes -22.051700
19
root -0.616622 0.793821 6.958017 6.269451 -0.480702 -3.505119
lowerback -5.682382 0.945793 0.294325
upperback -1.607587 1.211812 3.028950
thorax 1.369515 0.605233 3.001491
lowerneck -23.102830 -4.603508 -12.063227
upperneck 25.747198 -5.800027 12.112882
head 13.233546 -2.137374 5.787739
rclavicle -0.000000 0.000000
rhumerus -33.266649 15.658933 -85.102639
rradius 29.894217
rwrist -12.322412
rhand -28.856200 -18.800500
rfingers 7.125020
rthumb -2.212790 -48.768800
lclavicle -0.000000 0.000000
lhumerus -33.864742 -5.779939 92.555873
lradius 19.270495
lwrist -5.334150
lhand -19.668800 -28.799300
lfingers 7.125020
lthumb 6.659510 1.076010
rfemur -5.038441 -1.621459 30.678640
rtibia 15.447522
rfoot -14.366444 6.973983
rtoes -20.766800
lfemur -33.663342 12.643029 -20.084498
ltibia 56.441495
lfoot 2.451699 32.369977
ltoes -22.051700
20
root -0.619029 0.744186 7.296964 6.452924 -1.113294 -3.881712
lowerback -5.510996 1.185804 0.766237
upperback -1.593875 1.510794 3.065011
thorax 1.282419 0.754816 2.790591
lowerneck -23.136228 -4.550421 -12.164736
upperneck 25.319150 -5.674078 12.228311
head 13.055493 -2.072515 5.851197
rclavicle -0.000000 0.000000
rhumerus -32.396317 18.456982 -85.642162
rradius 32.125092
rwrist -14.414449
rhand -28.856200 -18.800500
rfingers 7.125020
rthumb -2.212790 -48.768800
lclavicle -0.000000 0.000000
lhumerus -35.810785 -0.425583 88.770038
lradius 17.368912
lwrist -10.762888
lhand -19.668800 -28.799300
lfingers 7.125020
lthumb 6.659510 1.076010
rfemur -3.639983 -1.713346 31.042822
rtibia 14.595789
rfoot -14.509745 7.217939
rtoes -20.766800
lfemur -35.442763 12.143886 -19.864363
ltibia 52.167741
lfoot -0.437430 29.476761
ltoes -22.051700
21
root -0.619599 0.697279 7.641046 6.713044 -1.852123 -4.135183
lowerback -5.425130 1.433378 1.089807
upperback -1.561167 1.823622 3.068435
thorax 1.264122 0.910720 2.631663
lowerneck -23.190499 -4.481247 -12.220164
upperneck 25.044585 -5.530720 12.268719
head 12.935059 -2.005782 5.887349
rclavicle -0.000000 0.000000
rhumerus -31.489589 20.666416 -85.728949
rradius 34.148798
rwrist -16.004145
rhand -28.856200 -18.800500
rfingers 7.125020
rthumb -2.212790 -48.768800
lclavicle -0.000000 0.000000
lhumerus -37.852522 5.015956 84.436430
lradius 15.755678
lwrist -16.450805
lhand -19.668800 -28.799300
lfingers 7.125020
lthumb 6.659510 1.076010
rfemur -2.099078 -1.808354 31.260630
rtibia 13.331776
rfoot -14.369689 7.512263
rtoes -20.766800
lfemur -36.751664 11.525364 -19.466807
ltibia 46.931416
lfoot -2.268258 27.667945
ltoes -22.051700
22
root -0.618988 0.651914 7.989427 7.047973 -2.679190 -4.290776
lowerback -5.421029 1.688018 1.293946
upperback -1.509673 2.146527 3.046285
thorax 1.314940 1.071647 2.517509
lowerneck -23.259509 -4.396411 -12.243156
upperneck 24.930307 -5.369801 12.241192
head 12.873925 -1.937428 5.902195
rclavicle -0.000000 0.000000
rhumerus -30.448959 22.342274 -85.479628
rradius 35.934832
rwrist -17.216727
rhand -28.856200 -18.800500
rfingers 7.125020
rthumb -2.212790 -48.768800
lclavicle -0.000000 0.000000
lhumerus -39.993769 10.244648 79.760786
lradius 14.480062
lwrist -22.143981
lhand -19.668800 -28.799300
lfingers 7.125020
lthumb 6.659510 1.076010
rfemur -0.412426 -1.891962 31.323805
rtibia 11.719615
rfoot -13.915161 7.823350
rtoes -20.766800
lfemur -37.684856 10.725728 -18.889727
ltibia 40.990880
lfoot -3.578317 26.343926
ltoes -22.051700
23
root -0.617529 0.606925 8.342259 7.427274 -3.545313 -4.411247
lowerback -5.471753 1.944092 1.452583
upperback -1.441434 2.467159 3.017274
thorax 1.422204 1.232286 2.427260
lowerneck -23.342687 -4.302061 -12.259671
upperneck 24.924217 -5.194655 12.174966
head 12.854322 -1.867298 5.909126
rclavicle -0.000000 0.000000
rhumerus -29.178643 23.575401 -84.993293
rradius 37.540055
rwrist -18.169164
rhand -28.856200 -18.800500
rfingers 7.125020
rthumb -2.212790 -48.768800
lclavicle -0.000000 0.000000
lhumerus -42.270418 15.075091 74.905998
lradius 13.458014
lwrist -27.673378
lhand -19.668800 -28.799300
lfingers 7.125020
lthumb 6.659510 1.076010
rfemur 1.418933 -1.921257 31.231503
rtibia 9.917976
rfoot -13.124735 8.166459
rtoes -20.766800
lfemur -38.372131 9.616053 -18.065523
ltibia 34.692051
lfoot -4.931989 24.903842
ltoes -22.051700
24
root -0.614944 0.561503 8.701034 7.838008 -4.458892 -4.553527
lowerback -5.575864 2.218533 1.640344
upperback -1.356195 2.802906 2.989758
thorax 1.586498 1.402136 2.330603
lowerneck -23.458237 -4.210784 -12.278331
upperneck 24.979918 -5.017640 12.081240
head 12.864539 -1.799257 5.909856
rclavicle -0.000000 0.000000
rhumerus -27.583573 24.512598 -84.318120
rradius 39.122856
rwrist -18.999348
rhand -28.856200 -18.800500
rfingers 7.125020
rthumb -2.212790 -48.768800
lclavicle -0.000000 0.000000
lhumerus -44.780194 19.405765 69.930835
lradius 12.552586
lwrist -32.924828
lhand -19.668800 -28.799300
lfingers 7.125020
lthumb 6.659510 1.076010
rfemur 3.564135 -1.827207 30.986080
rtibia 7.799262
rfoot -11.950148 8.564181
rtoes -20.766800
lfemur -38.930689 8.109606 -16.924813
ltibia 28.114691
lfoot -6.435403 23.282414
ltoes -22.051700
25
root -0.610877 0.514410 9.068143 8.296418 -5.497203 -4.732788
lowerback -5.784397 2.548697 1.884994
upperback -1.253063 3.200224 2.954083
thorax 1.833094 1.604887 2.206400
lowerneck -23.645669 -4.138262 -12.271524
upperneck 25.110745 -4.861861 11.931843
head 12.918314 -1.742760 5.885100
rclavicle 0.000000 -0.000000
rhumerus -25.618552 25.318310 -83.478883
rradius 40.833184
rwrist -19.869797
rhand -28.856200 -18.800500
rfingers 7.125020
rthumb -2.212790 -48.768800
lclavicle 0.000000 -0.000000
lhumerus -47.544773 22.938584 65.044674
lradius 11.701380
lwrist -37.551460
lhand -19.668800 -28.799300
lfingers 7.125020
lthumb 6.659510 1.076010
rfemur 6.389893 -1.520320 30.599280
rtibia 4.759870
rfoot -10.315000 8.958151
rtoes -20.766800
lfemur -39.376503 6.298744 -15.500744
ltibia 21.214948
lfoot -7.567086 22.101098
ltoes -22.051700
